HIERARCHY
ROOT Hips
{
  OFFSET -35.4901 99.2528 17.4586
  CHANNELS 6 Xposition Yposition Zposition Zrotation Xrotation Yrotation
  JOINT LeftUpLeg
  {
    OFFSET 8.64259 1.95398 -2.38835
    CHANNELS 3 Zrotation Xrotation Yrotation
    JOINT LeftLeg
    {
      OFFSET 43.7702 0 0
      CHANNELS 3 Zrotation Xrotation Yrotation
      JOINT LeftFoot
      {
        OFFSET 40.6238 0 0
        CHANNELS 3 Zrotation Xrotation Yrotation
        JOINT LeftToeBase
        {
          OFFSET 12.7242 0 0
          CHANNELS 3 Zrotation Xrotation Yrotation
          End Site
          {
            OFFSET 0 0 0
          }
        }
      }
    }
  }
  JOINT RightUpLeg
  {
    OFFSET -8.2249 1.95398 -2.59336
    CHANNELS 3 Zrotation Xrotation Yrotation
    JOINT RightLeg
    {
      OFFSET 43.5653 0 0
      CHANNELS 3 Zrotation Xrotation Yrotation
      JOINT RightFoot
      {
        OFFSET 40.6238 0 0
        CHANNELS 3 Zrotation Xrotation Yrotation
        JOINT RightToeBase
        {
          OFFSET 12.7242 0 0
          CHANNELS 3 Zrotation Xrotation Yrotation
          End Site
          {
            OFFSET 0 0 0
          }
        }
      }
    }
  }
  JOINT Spine
  {
    OFFSET 0.165834 0.87714 6.61349
    CHANNELS 3 Zrotation Xrotation Yrotation
    JOINT Spine1
    {
      OFFSET 7.38963 1.71661e-005 0
      CHANNELS 3 Zrotation Xrotation Yrotation
      JOINT Spine2
      {
        OFFSET 11.9445 1.14441e-005 0
        CHANNELS 3 Zrotation Xrotation Yrotation
        JOINT Spine3
        {
          OFFSET 14.7254 4.19617e-005 0
          CHANNELS 3 Zrotation Xrotation Yrotation
          JOINT Spine4
          {
            OFFSET 10.9679 0 0
            CHANNELS 3 Zrotation Xrotation Yrotation
            JOINT RightShoulder
            {
              OFFSET 2.46616 -1.6653 3.69651
              CHANNELS 3 Zrotation Xrotation Yrotation
              JOINT RightArm
              {
                OFFSET 13.0012 0 0
                CHANNELS 3 Zrotation Xrotation Yrotation
                JOINT RightForeArm
                {
                  OFFSET 28.7848 1.52588e-005 0
                  CHANNELS 3 Zrotation Xrotation Yrotation
                  JOINT RightHand
                  {
                    OFFSET 26.5688 1.52588e-005 0
                    CHANNELS 3 Zrotation Xrotation Yrotation
                    End Site
                    {
                      OFFSET 0 0 0
                    }
                  }
                }
              }
            }
            JOINT LeftShoulder
            {
              OFFSET 2.38034 -1.29275 -3.7523
              CHANNELS 3 Zrotation Xrotation Yrotation
              JOINT LeftArm
              {
                OFFSET 16.3182 6.10351e-005 0
                CHANNELS 3 Zrotation Xrotation Yrotation
                JOINT LeftForeArm
                {
                  OFFSET 27.0901 0 0
                  CHANNELS 3 Zrotation Xrotation Yrotation
                  JOINT LeftHand
                  {
                    OFFSET 24.5451 1.52588e-005 0
                    CHANNELS 3 Zrotation Xrotation Yrotation
                    End Site
                    {
                      OFFSET 0 0 0
                    }
                  }
                }
              }
            }
            JOINT Neck
            {
              OFFSET 5.0226 -0.0266342 0
              CHANNELS 3 Zrotation Xrotation Yrotation
              JOINT Head
              {
                OFFSET 6.69364 2.86102e-005 0
                CHANNELS 3 Zrotation Xrotation Yrotation
                End Site
                {
                  OFFSET 0 0 0
                }
              }
            }
          }
        }
      }
    }
  }
}
MOTION
Frames:	17
Frame Time:	0.0416667
-46.8188 53.1037 37.0674 61.6945 43.5367 107.292 -36.2298 56.2541 -18.4744 -131.003 50.369 12.0957 59.6815 -1.215 11.2029 15.2183 22.8886 -28.2927 45.0903 61.0863 -170.298 -122.262 -21.1521 -2.27292 96.5001 -18.868 -4.44108 3.24381 -4.88224 9.88357 0.509804 12.8121 -90.0023 1.24916 1.01666 0.0284766 -10.4214 1.01692 -0.0163142 -32.9595 0.961087 0.332734 -12.9468 0.961086 0.332729 89.9633 -17.0528 -113.018 19.4186 21.1485 -48.5939 0.518104 -5.14016 -18.3325 -15.4834 2.47194 -25.2561 -89.0171 -26.3015 73.9399 -4.11149 -7.92188 -77.8479 7.85772 12.0623 -8.50114 -10.8594 1.11925 -20.5653 16.1857 -2.22146 -2.82955 -7.37114 -1.32173 -0.987148 
-46.9494 52.9493 37.2715 61.2808 43.8277 106.972 -36.9967 55.9728 -18.5496 -130.851 50.0462 11.9027 60.3402 -0.76887 11.31 14.5186 22.3946 -27.2983 45.5224 62.7901 -169.618 -121.613 -19.6451 -2.1276 100.488 -19.8632 -1.76554 5.15254 -4.38341 9.2467 0.461328 12.6608 -90.0118 1.5519 0.916411 0.0031424 -10.1187 0.915668 -0.0372072 -32.6563 0.873106 0.27844 -12.6437 0.8731 0.278439 89.6181 -17.4798 -113.594 16.92 20.4067 -47.8781 1.5622 -5.74031 -17.0454 -15.8071 2.38273 -24.3302 -89.4469 -27.4846 73.5028 -4.50999 -7.39626 -77.8305 7.60242 11.9903 -7.74947 -10.7961 1.06065 -19.961 18.985 -2.09295 -1.89035 -9.48697 -1.33682 -1.75435 
-47.2674 52.9883 37.4659 60.2606 43.8692 107.136 -38.5587 55.7752 -18.201 -130.668 50.7128 11.9919 61.6592 0.00414497 12.6555 16.4006 20.5561 -26.0029 47.0402 65.0591 -169.725 -119.799 -15.7653 -1.64109 108.273 -20.5837 4.75237 4.47914 -4.19942 8.91188 0.394694 12.3755 -89.9436 2.12229 0.810012 0.127066 -9.54841 0.814817 0.0912763 -32.0853 0.734363 0.364629 -12.0726 0.734371 0.364639 89.6767 -18.0808 -113.098 16.4323 18.1122 -48.7573 1.78513 -6.67484 -15.503 -15.024 2.18765 -24.2095 -89.6786 -26.8578 72.8163 -4.92958 -6.18024 -76.4404 7.03532 11.9342 -7.02652 -13.922 1.70756 -22.0099 21.7178 -2.42161 -2.38298 -11.5343 -1.47444 -0.973568 
-47.5966 53.1901 37.7171 59.6539 44.3303 107.262 -39.808 55.0057 -17.58 -130.634 52.3989 12.4015 61.3965 -0.154078 14.6825 16.2938 20.0756 -25.3397 46.4684 65.0176 -168.852 -119.011 -14.0745 -1.58969 109.929 -21.1164 5.27996 3.87963 -5.25931 10.5164 0.371234 12.1301 -89.9422 2.6132 0.764124 0.124585 -9.05754 0.768834 0.0908318 -31.5942 0.691339 0.348479 -11.5816 0.69133 0.348485 89.0801 -19.5136 -113.662 13.2019 17.011 -48.3127 1.46012 -8.32875 -13.5905 -17.0253 1.89321 -20.1508 -90.0524 -26.9081 72.0924 -5.96854 -5.11282 -76.0622 7.01106 14.1246 -6.01925 -15.3344 1.93557 -22.0425 24.1681 -2.88334 -2.97096 -12.3809 -1.78541 0.540721 
-47.7582 53.7342 37.7657 58.9989 44.2859 108.397 -39.8881 55.7442 -17.244 -128.425 51.728 11.271 61.6604 0.0947385 12.3525 17.0839 21.4248 -27.4305 47.1963 64.7426 -169.338 -118.008 -15.7979 -1.3714 108.305 -21.8161 2.48123 2.99231 -5.3137 10.5287 0.448241 11.8523 -90.0514 3.16933 0.875151 -0.094449 -8.50133 0.870154 -0.132881 -31.0388 0.863074 0.172962 -11.0261 0.86307 0.172951 88.2251 -20.5887 -114.988 9.81018 17.0668 -46.7261 1.25914 -13.7741 -12.417 -14.5441 1.2096 -18.7798 -90.5628 -27.4918 71.3079 -7.63036 -4.26716 -75.1443 8.01044 17.0415 -7.06375 -16.4039 2.06263 -21.6999 25.0246 -3.13359 -2.77991 -11.987 -2.11112 1.03616 
-48.0339 55.2217 37.8822 57.2286 44.1485 109.613 -41.2612 56.3306 -16.1043 -125.105 53.0423 9.76984 61.7559 0.259658 12.7073 14.5819 22.4318 -27.3783 47.273 65.2068 -169.546 -115.467 -12.8911 -0.781108 107.879 -19.2773 7.13018 1.6965 -3.12657 7.13608 0.42562 11.5748 -90.0781 3.72453 0.819035 -0.152631 -7.94618 0.811535 -0.188529 -30.4834 0.827054 0.100608 -10.4707 0.827046 0.100587 88.0186 -20.7551 -115.354 8.22086 16.871 -45.6385 1.62869 -14.5944 -12.2004 -12.1158 0.989828 -20.106 -90.7 -28.1472 71.2912 -7.78826 -3.87944 -75.0048 8.58383 19.6343 -8.12492 -16.8781 2.16923 -21.9642 26.3794 -3.01561 -2.8139 -11.7807 -1.93695 0.933184 
-48.287 57.715 38.1038 54.5716 43.5751 111.555 -42.9458 58.3668 -15.2824 -118.256 52.3201 6.14071 61.1987 0.0911404 10.6038 15.3422 22.1449 -27.4354 48.9496 65.9268 -170.227 -111.322 -13.4381 0.375189 105.508 -19.1173 5.35453 2.38472 -3.41668 7.59586 0.412114 11.2657 -90.048 4.34263 0.803942 -0.100593 -7.32807 0.798717 -0.135892 -29.8652 0.797011 0.145682 -9.85255 0.796998 0.145693 88.1884 -20.9145 -114.88 9.02513 16.9804 -45.6447 1.50626 -15.5571 -13.5578 -14.2495 1.14941 -19.106 -90.7028 -27.5953 71.0735 -7.03624 -4.01317 -74.444 8.57727 19.2333 -8.95795 -17.3157 2.3495 -22.8162 28.0391 -3.19403 -3.27082 -11.0103 -1.88252 1.00226 
-48.6067 60.8573 38.1098 50.7494 42.8501 113.77 -46.3192 60.7974 -13.9092 -109.288 52.7166 1.28471 61.3454 0.22469 9.31391 14.6797 20.1654 -24.5775 49.3145 67.1439 -169.972 -105.706 -13.8192 1.89981 103.58 -18.9653 3.84295 3.1634 -4.32073 9.01314 0.322342 10.8556 -90.0033 5.16269 0.64278 -0.0190006 -6.50808 0.641336 -0.0472864 -29.0445 0.618773 0.175072 -9.03181 0.618777 0.175066 87.9549 -21.6587 -114.97 7.31754 16.6049 -44.8713 2.51892 -15.9902 -12.4184 -14.4547 1.34546 -20.8656 -90.3908 -28.4707 72.0121 -5.66637 -3.95252 -75.1284 8.34475 20.1729 -9.42728 -16.6085 2.09285 -21.7284 29.7409 -2.95216 -2.56036 -10.214 -1.82975 0.429384 
-48.88 64.8603 38.2563 46.3116 41.7532 116.267 -50.8647 63.6992 -11.6735 -97.6457 55.1387 -4.85927 61.4461 0.649916 10.1143 14.7572 16.7893 -20.4486 51.5588 68.5955 -171.142 -98.0028 -16.0069 4.09397 99.7085 -18.714 0.544144 4.73652 -4.41214 9.26355 0.232761 10.4422 -89.9678 5.98936 0.478518 0.0500718 -5.6815 0.480258 0.028947 -28.2173 0.441348 0.191574 -8.20465 0.441346 0.191581 87.8257 -21.5368 -115.326 4.46247 15.6681 -43.3364 2.34724 -15.4312 -13.4209 -12.1231 1.15119 -22.0762 -90.1123 -28.6 72.596 -5.04102 -3.83706 -75.4867 7.61036 17.2994 -9.33266 -16.1146 2.02756 -21.8459 33.3859 -2.62075 -1.71498 -9.96842 -1.80404 0.717909 
-49.1626 69.4708 38.3163 41.6295 41.0428 118.935 -58.9233 67.3901 -7.25967 -84.1178 51.7296 -11.3877 62.3271 1.32163 8.17178 16.0178 16.9802 -21.247 53.4336 70.9806 -172.315 -89.696 -16.388 6.5293 94.7415 -16.8145 -1.06488 6.06933 -4.00344 8.6913 0.133782 9.99533 -89.954 6.88316 0.2869 0.0785784 -4.78777 0.290067 0.0658685 -27.3231 0.250025 0.161173 -7.31044 0.250016 0.161171 87.7034 -21.7313 -115.483 1.9174 14.6075 -40.9985 2.61758 -14.3511 -15.6789 -11.3812 1.18263 -23.2408 -90.2945 -28.21 72.1045 -5.60842 -3.67141 -74.1385 8.34078 16.4506 -11.3079 -18.36 2.67031 -23.7501 36.9924 -2.68549 -0.904503 -9.98051 -2.15054 0.406227 
-49.1318 74.0955 38.2406 38.0535 40.0362 120.701 -70.4616 71.1084 1.15285 -70.3135 49.5178 -17.4097 62.5466 1.39426 8.44114 20.3143 15.0047 -20.5563 59.7195 73.6691 -177.254 -80.5871 -14.5503 8.74277 91.0154 -15.0318 -1.28012 6.68932 -4.13633 8.95674 0.116696 9.54098 -89.9165 7.79171 0.269422 0.15053 -3.87923 0.275792 0.138522 -26.4145 0.211731 0.22455 -6.40182 0.211729 0.224535 87.7897 -22.1358 -115.061 1.91146 13.9098 -37.9104 1.10213 -15.2214 -19.583 -11.4705 1.21701 -23.8081 -90.3134 -28.6429 72.2273 -4.77773 -2.98806 -72.1986 8.06542 12.1543 -14.8278 -17.1584 2.64335 -25.2102 39.4732 -2.90024 -0.794103 -10.0294 -2.43468 1.17302 
-49.0025 78.6493 38.0678 35.3094 39.1817 122.088 -87.1669 74.1594 14.6898 -57.9186 46.1131 -21.2477 62.2424 1.09532 8.58054 21.9027 13.5196 -19.1796 70.8472 76.4101 173.034 -71.2366 -13.7736 10.6269 86.1562 -12.9086 -2.50337 7.22458 -3.70814 8.28334 0.108504 9.12099 -89.897 8.63168 0.262112 0.18684 -3.03925 0.27009 0.175119 -25.5744 0.193839 0.256972 -5.56178 0.19385 0.256992 87.6983 -22.8259 -114.871 1.64065 12.1964 -34.6946 2.6793 -7.64283 -24.2735 -13.3084 1.80115 -23.7153 -90.4383 -29.2691 72.215 -2.18802 -1.13658 -69.1738 5.95139 5.95941 -18.8149 -17.8595 2.88422 -25.9941 41.9296 -2.6644 0.171311 -10.286 -2.63665 0.59701 
-48.9189 82.9308 37.7667 33.4009 38.6664 122.785 -110.882 75.7849 34.449 -47.8456 40.754 -21.8664 61.198 0.500437 7.16193 22.2654 12.5668 -17.9221 89.7488 78.4429 155.592 -61.7467 -11.3146 11.757 81.7268 -10.8311 -3.36079 7.75652 -4.10833 8.98126 0.0636318 8.73009 -89.8643 9.41337 0.188007 0.254704 -2.25758 0.199041 0.246183 -24.7926 0.102759 0.299425 -4.77993 0.102766 0.299435 87.7217 -23.1323 -114.649 3.56129 11.408 -31.8803 1.28959 -8.14657 -27.688 -8.68646 1.37318 -28.4756 -90.2651 -29.9025 72.7737 -3.24456 0.739608 -66.0763 5.65261 3.37058 -23.1674 -18.168 2.92691 -25.8911 43.5066 -2.27262 0.803599 -9.93255 -2.55753 0.0495371 
-48.4882 86.6111 37.4651 33.4799 38.3696 122.93 -136.724 74.8899 57.1685 -40.4992 35.9385 -19.7476 60.4527 0.15722 5.77244 24.4739 9.79023 -14.7015 117.23 77.2631 129.915 -52.6589 -8.40586 12.4445 77.591 -8.58008 -2.88566 8.11839 -3.96963 8.77335 0.055576 8.42572 -89.9088 10.0224 0.152347 0.168781 -1.64855 0.159648 0.161909 -24.1837 0.0945757 0.206761 -4.17103 0.094578 0.206762 87.7593 -22.5084 -114.917 7.29266 10.4836 -29.1575 1.20281 -7.36295 -31.777 -7.44432 1.17293 -28.8244 -90.3232 -30.9129 73.0154 -6.11053 2.66632 -61.4627 6.10187 1.87482 -27.7559 -15.904 2.32237 -24.4441 44.7495 -1.73682 1.68469 -10.1082 -2.49799 -0.412611 
-47.8688 89.302 37.0087 35.366 38.333 122.147 -154.359 71.2435 72.8097 -35.4326 32.3761 -16.8799 60.5843 0.192565 4.68439 24.8316 7.40899 -11.1775 136.218 73.2741 112.725 -45.1562 -6.7813 12.6869 74.2909 -6.8839 -3.0652 8.34036 -3.93237 8.72433 0.084186 8.21606 -89.9342 10.4417 0.197898 0.113303 -1.22929 0.202705 0.104482 -23.7645 0.154697 0.167534 -3.75182 0.154711 0.167552 88.4398 -22.3475 -113.518 12.7582 8.69928 -28.5667 0.537091 -6.76555 -34.3953 -9.86981 1.80935 -30.0396 -90.3934 -32.4395 73.4006 -9.11317 3.60199 -57.2227 10.2139 6.7916 -31.2202 -17.0225 2.58276 -24.9452 45.4199 -1.28279 2.18388 -10.4885 -2.3377 -0.606356 
-47.1801 91.3406 36.3567 38.8636 38.8964 119.829 -165.473 65.6314 81.7322 -31.8386 29.3118 -13.4008 61.508 0.687117 4.15694 25.456 5.41543 -8.24974 148.277 67.9974 102.27 -39.4208 -4.89693 11.8951 72.213 -5.75731 -2.47561 8.26534 -3.64129 8.22373 0.069288 8.08747 -89.8899 10.6988 0.188758 0.201722 -0.972199 0.197461 0.193209 -23.5073 0.119411 0.249124 -3.49463 0.119402 0.249119 88.3348 -23.4888 -113.135 16.0713 6.99088 -26.3548 -0.742882 -7.74118 -38.1276 -10.9688 1.83904 -28.1272 -90.1215 -34.4915 74.5448 -9.61007 5.56972 -53.5827 9.32867 4.93706 -33.0754 -15.5068 2.35964 -25.4224 44.5798 -0.885808 2.48077 -10.3556 -2.09863 -0.736205 
-46.2041 92.7531 35.6025 43.5356 40.0325 116.9 -170.748 58.9356 85.7997 -28.994 27.469 -10.6779 62.5691 1.18807 3.82976 25.9671 3.91493 -6.00314 155.625 61.9688 96.415 -35.8302 -3.2899 10.5416 71.3047 -5.25822 -2.1846 9.56207 -3.35474 7.80217 0.00646613 8.00005 -89.8934 10.8737 0.0621977 0.206378 -0.797237 0.0712242 0.203441 -23.3323 -0.00271251 0.215533 -3.31961 -0.00270863 0.215527 88.5059 -23.9945 -112.507 19.3833 4.76167 -24.6494 -2.16412 -9.74446 -40.0897 -10.9605 1.73668 -28.1116 -89.7687 -37.9237 76.1694 -9.02558 7.39901 -49.4779 9.88286 5.35144 -34.9858 -16.2974 2.35066 -24.155 43.3663 -0.225181 3.2669 -10.2619 -1.8204 -1.32856 
